<svg width="24" height="24" viewBox="0 0 24 24" fill="none" xmlns="http://www.w3.org/2000/svg">
<mask id="mask0_1_150" style="mask-type:alpha" maskUnits="userSpaceOnUse" x="0" y="0" width="24" height="24">
<rect width="24" height="24" fill="#D9D9D9"/>
</mask>
<g mask="url(#mask0_1_150)">
<path d="M12.9288 2.13834L20.7808 6.82284C21.0037 6.96784 21.1794 7.15859 21.3078 7.39509C21.4359 7.63159 21.5 7.88317 21.5 8.14984V18.6921C21.5 19.1973 21.325 19.6248 20.975 19.9748C20.625 20.3248 20.1974 20.4998 19.6923 20.4998H4.30775C3.80258 20.4998 3.375 20.3248 3.025 19.9748C2.675 19.6248 2.5 19.1973 2.5 18.6921V8.14984C2.5 7.88317 2.56408 7.63159 2.69225 7.39509C2.82058 7.15859 2.99625 6.96784 3.21925 6.82284L11.0712 2.13834C11.3558 1.97417 11.6653 1.89209 12 1.89209C12.3347 1.89209 12.6443 1.97417 12.9288 2.13834ZM12.1538 12.5536L19.8 7.99984L12.1538 3.44609C12.1026 3.41392 12.0513 3.39784 12 3.39784C11.9487 3.39784 11.8974 3.41392 11.8463 3.44609L4.2 7.99984L11.8463 12.5536C11.8974 12.5858 11.9487 12.6018 12 12.6018C12.0513 12.6018 12.1026 12.5858 12.1538 12.5536ZM11.0712 13.8458L4 9.62284V18.6921C4 18.7819 4.02883 18.8557 4.0865 18.9133C4.14417 18.971 4.21792 18.9998 4.30775 18.9998H19.6923C19.7821 18.9998 19.8558 18.971 19.9135 18.9133C19.9712 18.8557 20 18.7819 20 18.6921V9.62284L12.9288 13.8458C12.6443 14.01 12.3347 14.0921 12 14.0921C11.6653 14.0921 11.3558 14.01 11.0712 13.8458Z" fill="#0E93F5"/>
</g>
</svg>
