<svg width="60" height="60" viewBox="0 0 60 60" fill="none" xmlns="http://www.w3.org/2000/svg">
<g clip-path="url(#clip0_1_172)">
<path d="M5.02063 1.25122C4.19076 0.818702 3.16875 0.954036 2.4718 1.59302C1.77587 2.23093 1.55475 3.23465 1.91711 4.10767L24.1486 57.6145L24.1495 57.6155C24.4982 58.4587 25.3163 59.0001 26.2198 59.0002C26.26 59.0002 26.2996 58.9991 26.3439 58.9973H26.3429C27.2947 58.9447 28.1094 58.2999 28.3761 57.386V57.385L34.2452 37.3411L34.4152 36.759L35.0099 36.6418L56.4445 32.3938C57.3231 32.2193 58.0085 31.5418 58.2013 30.679L58.2325 30.5042C58.366 29.5591 57.8888 28.6327 57.0411 28.1946L57.0402 28.1936L5.02258 1.2522L5.02063 1.25122Z" fill="black" stroke="white" stroke-width="2"/>
</g>
<defs>
<clipPath id="clip0_1_172">
<rect width="60" height="60" fill="white" transform="matrix(-1 0 0 1 60 0)"/>
</clipPath>
</defs>
</svg>
