<svg width="70" height="70" viewBox="0 0 70 70" fill="none" xmlns="http://www.w3.org/2000/svg">
<path d="M26.74 11.9C18.62 11.9 12.04 18.48 12.04 26.6V43.4C12.04 51.52 18.62 58.1 26.74 58.1C34.86 58.1 41.44 51.52 41.44 43.4V26.6C41.44 18.48 34.86 11.9 26.74 11.9ZM37.94 43.4C37.94 49.56 32.9 54.6 26.74 54.6C20.58 54.6 15.54 49.56 15.54 43.4V26.6C15.54 20.44 20.58 15.4 26.74 15.4C32.9 15.4 37.94 20.44 37.94 26.6V43.4Z" fill="#8095FF"/>
<path d="M26.74 21.28C25.76 21.28 24.99 22.05 24.99 23.03V28.14C24.99 29.12 25.76 29.89 26.74 29.89C27.72 29.89 28.49 29.12 28.49 28.14V23.03C28.49 22.12 27.72 21.28 26.74 21.28Z" fill="#8095FF"/>
<path d="M56.84 43.33L54.46 45.71V21.7C54.46 21.14 53.97 20.65 53.41 20.65C52.85 20.65 52.36 21.14 52.36 21.7V45.78L49.98 43.4C49.56 42.98 48.93 42.98 48.51 43.4C48.09 43.82 48.09 44.45 48.51 44.87L52.71 49.07C52.78 49.14 52.92 49.28 53.06 49.28C53.2 49.35 53.34 49.35 53.41 49.35C53.48 49.35 53.69 49.35 53.76 49.28C53.9 49.21 53.97 49.14 54.11 49.07L58.31 44.87C58.73 44.45 58.73 43.82 58.31 43.4C57.89 42.98 57.26 42.98 56.84 43.33Z" fill="#8095FF"/>
</svg>
